<svg xmlns="http://www.w3.org/2000/svg" width="16" height="16" viewBox="0 0 40 40">
  <path fill="none" d="M3.589-15.881h40v40h-40z" style="fill:#000;fill-opacity:0;stroke:none;stroke-width:.808602" transform="translate(-3.589 15.881)"/>
  <path fill="#6c707e" d="M81.969 178.104c-.132-.82-.291-1.64-.291-2.46-.027-4.657 0-9.314-.053-13.97-.027-1.932-.503-3.758-1.879-5.213-.476-.503-1.031-.952-1.56-1.429.529-.476 1.084-.926 1.56-1.428 1.376-1.456 1.852-3.255 1.879-5.213.053-4.656.026-9.313.053-13.97 0-.82.159-1.64.29-2.46.16-1.059.821-1.667 1.853-1.8h5.503v-5.873h-3.783c-2.964-.132-5.821.264-8.282 2.381-2.01 1.746-2.672 4.101-2.725 6.615-.106 4.312-.026 8.625-.08 12.938 0 .952-.105 1.905-.343 2.83l-.08.239a3.5 3.5 0 0 1-1.481 1.8 4.5 4.5 0 0 1-1.085.449c-.344.106-.635.159-.847.238-.211.027-.397.053-.582.08h-2.249v6.244h2.25c.184.026.37.026.581.079.212.08.477.159.847.238.397.106.767.265 1.085.45.608.397 1.164.952 1.481 1.8l.08.237c.238.926.344 1.879.344 2.831.053 4.313-.027 8.626.08 12.938.052 2.514.74 4.869 2.724 6.615 2.46 2.143 5.318 2.514 8.282 2.381h3.783v-5.874h-5.503c-1.005-.026-1.693-.635-1.852-1.693M141.923 151.963c-.185-.026-.37-.026-.582-.08a6 6 0 0 0-.847-.237 4.5 4.5 0 0 1-1.084-.45c-.609-.397-1.165-.953-1.482-1.8l-.08-.237a11.4 11.4 0 0 1-.343-2.831c-.053-4.313.026-8.626-.08-12.939-.053-2.513-.74-4.868-2.725-6.614-2.46-2.143-5.318-2.514-8.281-2.381h-3.784v5.873h5.503c1.032.133 1.694.741 1.852 1.8.133.82.291 1.64.291 2.46.027 4.657 0 9.314.053 13.97.027 1.932.503 3.757 1.879 5.212.476.503 1.032.953 1.56 1.43-.528.475-1.084.925-1.56 1.428-1.376 1.455-1.852 3.254-1.879 5.212-.053 4.657-.026 9.314-.053 13.97 0 .82-.158 1.64-.29 2.46-.16 1.06-.82 1.668-1.853 1.8h-5.503v5.874h3.784c2.963.132 5.82-.265 8.281-2.381 2.01-1.747 2.672-4.101 2.725-6.615.106-4.313.027-8.625.08-12.938 0-.953.105-1.905.344-2.831l.079-.238a3.5 3.5 0 0 1 1.482-1.8 4.5 4.5 0 0 1 1.084-.45c.344-.105.635-.158.847-.237.212-.027.397-.053.582-.08h2.25v-6.244h-2.25z" style="stroke-width:.264583" transform="translate(-29.948 -53.091)scale(.4713)"/>
  <path fill="#6c707e" d="M27.85 11.334a22 22 0 0 0-1.46.897 27 27 0 0 0-2.468 1.896c-.337.299-.649.573-.923.835-.137.112-.262.225-.387.337-.423.374-.823.748-1.21 1.097-2.119 1.97-3.64 3.604-3.64 3.604l-1.995-2.245-.998-1.11-.71-.797c.074-.387.36-.711.71-.986.237-.187.499-.336.76-.473.512-.262.96-.4.96-.4l.338.4.847.985.998 1.16c.362-.375.723-.736 1.072-1.073.4-.387.799-.748 1.185-1.072.274-.237.549-.474.823-.686.262-.2.524-.387.81-.574-.972-.474-2.194-.736-3.616-.736h-6.77v15.95h3.603V23.79h3.167c4.053 0 6.385-2.145 6.385-5.861 0-1.234-.287-2.294-.836-3.13z"/>
</svg>
